<svg width="38" height="40" viewBox="0 0 38 40" fill="none" xmlns="http://www.w3.org/2000/svg">
<g clip-path="url(#clip0_2670_38661)">
<path opacity="0.2" d="M17.5169 33.9637C26.6817 33.9637 34.1112 26.5342 34.1112 17.3694C34.1112 8.20466 26.6817 0.775146 17.5169 0.775146C8.35212 0.775146 0.922607 8.20466 0.922607 17.3694C0.922607 26.5342 8.35212 33.9637 17.5169 33.9637Z" fill="#3A6DEE" fill-opacity="0.3"/>
<path d="M9.73782 13.0301C8.11477 13.0301 6.74357 11.7988 6.54769 10.1758L6.37979 8.88854C6.26785 7.99307 6.57567 7.06961 7.16333 6.37002C7.77897 5.69841 8.64646 5.30664 9.56992 5.30664H9.87774C10.8012 5.30664 11.6687 5.69841 12.2843 6.37002C12.9 7.04162 13.1798 7.96508 13.0679 8.88854L12.928 10.2038C12.7321 11.8268 11.3609 13.0301 9.73782 13.0301ZM9.56992 6.84574C9.0942 6.84574 8.64646 7.04162 8.33864 7.40541C8.03082 7.7692 7.86292 8.21694 7.91888 8.69266L8.0588 10.0079C8.14275 10.8474 8.87033 11.463 9.70984 11.463C10.5493 11.463 11.2489 10.8194 11.3609 10.0079L11.5008 8.69266C11.5568 8.21694 11.4168 7.7692 11.081 7.40541C10.7732 7.04162 10.3255 6.84574 9.84975 6.84574H9.56992Z" fill="#3A6DEE"/>
<path d="M7.27533 25.511H5.70825V39.223H7.27533V25.511Z" fill="#3A6DEE"/>
<path d="M13.7681 25.511H12.201V30.8559H13.7681V25.511Z" fill="#3A6DEE"/>
<path d="M6.49152 26.2949H5.00839C3.41332 26.2949 2.37793 24.392 2.37793 23.1047V18.2916C2.37793 16.3327 3.83308 14.6257 5.90386 14.15C6.82732 13.9261 8.14255 13.8422 9.87754 13.8981C10.9409 13.9261 12.0043 13.9541 13.0677 14.0101C16.0619 14.122 18.8603 14.206 21.8265 14.206C22.2463 14.206 22.6101 14.5418 22.6101 14.9895C22.6101 17.0883 20.9031 18.8233 18.8043 18.8792L14.0191 19.0191C13.9072 19.0191 13.7952 19.1311 13.7952 19.271V25.5673H12.2282V19.215C12.2282 18.2636 12.9837 17.4521 13.9352 17.4241L18.7204 17.2842C19.6998 17.2562 20.5673 16.6125 20.8751 15.7451C18.2167 15.7171 15.6701 15.6331 12.9837 15.5492C11.9203 15.5212 10.8849 15.4652 9.79359 15.4372C8.25449 15.3813 7.02321 15.4652 6.23967 15.6611C4.86847 15.9969 3.91703 17.0603 3.91703 18.2916V23.1047C3.91703 23.8043 4.53267 24.7558 5.00839 24.7558H5.73596V19.6628H7.30304V25.5393C7.27506 25.9591 6.91127 26.2949 6.49152 26.2949Z" fill="#3A6DEE"/>
<path d="M18.6647 33.7099C17.0976 33.7099 15.7544 32.5346 15.5865 30.9675L15.4466 29.7082C15.3347 28.8408 15.6145 27.9453 16.2022 27.2737C16.7898 26.6021 17.6293 26.2383 18.5248 26.2383H18.8046C19.7001 26.2383 20.5396 26.6301 21.1273 27.2737C21.7149 27.9453 21.9948 28.8128 21.8828 29.7082L21.7429 30.9675C21.575 32.5346 20.2318 33.7099 18.6647 33.7099ZM18.5248 27.8054C18.0771 27.8054 17.6573 28.0012 17.3775 28.3371C17.0696 28.6729 16.9297 29.0926 16.9857 29.5403L17.1256 30.7996C17.2096 31.5832 17.8812 32.1708 18.6647 32.1708C19.4483 32.1708 20.1199 31.5832 20.2038 30.7996L20.3437 29.5403C20.3997 29.0926 20.2598 28.6729 19.952 28.3371C19.6441 28.0012 19.2524 27.8054 18.8046 27.8054H18.5248Z" fill="#3A6DEE"/>
<path d="M25.3245 39.2229H23.7574V37.8237C23.7574 36.5085 22.694 35.4451 21.3788 35.4451H15.922C14.6068 35.4451 13.5434 36.5085 13.5434 37.8237V39.2229H11.9763V37.8237C11.9763 35.669 13.7393 33.906 15.894 33.906H21.3508C23.5056 33.906 25.2685 35.669 25.2685 37.8237V39.2229H25.3245Z" fill="#3A6DEE"/>
<path d="M30.4179 33.7099C28.8508 33.7099 27.5076 32.5346 27.3397 30.9675L27.1998 29.7082C27.0878 28.8408 27.3677 27.9453 27.9553 27.2737C28.543 26.6021 29.3825 26.2383 30.278 26.2383H30.5578C31.4533 26.2383 32.2928 26.6301 32.8804 27.2737C33.4681 27.9453 33.7479 28.8128 33.636 29.7082L33.4961 30.9675C33.3282 32.5346 31.985 33.7099 30.4179 33.7099ZM30.278 27.8054C29.8302 27.8054 29.4105 28.0012 29.1306 28.3371C28.8228 28.6729 28.6829 29.0926 28.7389 29.5403L28.8788 30.7996C28.9627 31.5832 29.6343 32.1708 30.4179 32.1708C31.2014 32.1708 31.873 31.5832 31.957 30.7996L32.0969 29.5403C32.1529 29.0926 32.013 28.6729 31.7051 28.3371C31.3973 28.0012 31.0055 27.8054 30.5578 27.8054H30.278Z" fill="#3A6DEE"/>
<path d="M37.0776 39.2229H35.5106V37.8237C35.5106 36.5085 34.4472 35.4451 33.132 35.4451H27.7031C26.3879 35.4451 25.3245 36.5085 25.3245 37.8237V39.2229H23.7574V37.8237C23.7574 35.669 25.5204 33.906 27.6752 33.906H33.132C35.2867 33.906 37.0497 35.669 37.0497 37.8237V39.2229H37.0776Z" fill="#3A6DEE"/>
<path d="M34.1947 21.7615C34.0268 21.7615 33.8589 21.7056 33.719 21.5936L30.7807 19.8027L27.7865 21.6496C27.5066 21.8175 27.1708 21.7895 26.919 21.6216C26.6391 21.4257 26.5272 21.0619 26.6391 20.7261L27.3667 17.2562L24.7642 15.0735C24.5404 14.8776 24.4284 14.5418 24.5124 14.2339C24.5963 13.8981 24.9321 13.6743 25.2679 13.6743L28.486 13.2825L30.0531 10.0924C30.305 9.56068 31.2284 9.56068 31.5083 10.0924L33.0754 13.2825L36.4054 13.7023C36.7132 13.7302 36.9651 13.9541 37.077 14.2619C37.1889 14.5977 37.049 14.9615 36.7692 15.1574L34.2227 17.2842L34.9782 20.8101C35.0342 21.1179 34.9223 21.4257 34.6704 21.6216C34.5025 21.7056 34.3346 21.7615 34.1947 21.7615ZM27.0869 15.0175L28.7099 16.3607C28.9338 16.5566 29.0457 16.8364 28.9618 17.1163L28.486 19.3549L30.3609 18.1796C30.6128 18.0117 30.9206 18.0117 31.1725 18.1796L33.0474 19.327L32.5437 17.0883C32.4877 16.8084 32.5717 16.5006 32.7955 16.3327L34.4186 14.9895L32.4317 14.7376C32.1799 14.7097 31.928 14.5418 31.8161 14.3179L30.7527 12.1072L29.6893 14.3179C29.5774 14.5418 29.3535 14.7097 29.0737 14.7376L27.0869 15.0175Z" fill="#081B2D"/>
</g>
<defs>
<clipPath id="clip0_2670_38661">
<rect width="36.1548" height="38.4495" fill="white" transform="translate(0.922607 0.775146)"/>
</clipPath>
</defs>
</svg>
