<svg width="38" height="38" viewBox="0 0 38 38" fill="none" xmlns="http://www.w3.org/2000/svg">
<rect width="38" height="38" fill="#EBEBEB"/>
<path d="M-434 -910C-434 -911.105 -433.105 -912 -432 -912H6116C6117.1 -912 6118 -911.105 6118 -910V920C6118 921.104 6117.1 922 6116 922H-432C-433.105 922 -434 921.105 -434 920V-910Z" fill="#DCDCDC"/>
<path d="M-432 -911H6116V-913H-432V-911ZM6117 -910V920H6119V-910H6117ZM6116 921H-432V923H6116V921ZM-433 920V-910H-435V920H-433ZM-432 921C-432.552 921 -433 920.552 -433 920H-435C-435 921.657 -433.657 923 -432 923V921ZM6117 920C6117 920.552 6116.55 921 6116 921V923C6117.66 923 6119 921.657 6119 920H6117ZM6116 -911C6116.55 -911 6117 -910.552 6117 -910H6119C6119 -911.657 6117.66 -913 6116 -913V-911ZM-432 -913C-433.657 -913 -435 -911.657 -435 -910H-433C-433 -910.552 -432.552 -911 -432 -911V-913Z" fill="black" fill-opacity="0.1"/>
<g clip-path="url(#clip0_434_63)">
<rect width="1440" height="960" transform="translate(-334 -626)" fill="#FAFAFA"/>
<rect width="1072" height="1842" transform="translate(-6 -442)" fill="white"/>
<rect x="6.5" y="-93.5" width="243" height="429" rx="3.5" fill="white"/>
<rect x="6.5" y="-93.5" width="243" height="429" rx="3.5" stroke="#E0E4E9"/>
<g opacity="0.1">
<mask id="mask0_434_63" style="mask-type:alpha" maskUnits="userSpaceOnUse" x="14" y="-86" width="228" height="228">
<rect x="14" y="-86" width="228" height="228" rx="4" fill="#EA12A1"/>
</mask>
<g mask="url(#mask0_434_63)">
<rect x="11.0007" y="-89.0001" width="318" height="292.5" rx="4" fill="#B3074F"/>
</g>
</g>
<g opacity="0.6" filter="url(#filter0_b_434_63)">
<rect x="-334" y="-626" width="1440" height="960" fill="#081B2D"/>
</g>
<rect width="1440" height="504" transform="translate(-334 -170)" fill="white"/>
<g filter="url(#filter1_dd_434_63)">
<rect x="-148.5" y="-37" width="335" height="234" rx="14" fill="white" shape-rendering="crispEdges"/>
<rect x="-148" y="-36.5" width="334" height="233" rx="13.5" stroke="#EDEFF3" shape-rendering="crispEdges"/>
<rect x="-13" y="-13" width="64" height="64" rx="14" fill="#3A6DEE" fill-opacity="0.05"/>
<rect x="-12.5" y="-12.5" width="63" height="63" rx="13.5" stroke="#FDFDFD" stroke-opacity="0.4"/>
<g clip-path="url(#clip1_434_63)">
<path opacity="0.2" d="M17.2791 33.8314C26.4439 33.8314 33.8734 26.4019 33.8734 17.2371C33.8734 8.07233 26.4439 0.642822 17.2791 0.642822C8.11433 0.642822 0.684814 8.07233 0.684814 17.2371C0.684814 26.4019 8.11433 33.8314 17.2791 33.8314Z" fill="#3A6DEE" fill-opacity="0.3"/>
<path d="M11.6548 31.0621C7.2614 31.0621 2.58813 29.635 2.58813 27.0045C2.58813 24.2341 7.79309 22.807 12.3264 22.9469C16.3561 23.0588 20.7215 24.402 20.7215 27.0045C20.7215 29.635 16.0483 31.0621 11.6548 31.0621ZM11.6548 24.486C7.06551 24.486 4.12723 25.9691 4.12723 27.0045C4.12723 28.0399 7.06551 29.523 11.6548 29.523C16.2441 29.523 19.1824 28.0399 19.1824 27.0045C19.1824 26.0531 16.552 24.6259 12.2984 24.514C12.0746 24.486 11.8787 24.486 11.6548 24.486Z" fill="#3A6DEE"/>
<path d="M11.6548 37.3586C7.2614 37.3586 2.58813 35.9314 2.58813 33.301V27.0046H4.15522V33.301C4.15522 34.3363 7.0935 35.8195 11.6828 35.8195C16.2721 35.8195 19.2104 34.3363 19.2104 33.301V27.0046H20.7775V33.5528C20.7775 33.6647 20.7495 33.8047 20.6935 33.8886C20.0219 36.1553 15.7124 37.3586 11.6548 37.3586Z" fill="#3A6DEE"/>
<path d="M28.2488 24.7375C23.8554 24.7375 19.1821 23.3104 19.1821 20.6799C19.1821 20.0363 19.4899 19.0848 20.8891 18.2453L21.7007 19.5606C21.085 19.9243 20.7492 20.3441 20.7492 20.6799C20.7492 21.7153 23.6875 23.1984 28.2768 23.1984C32.8661 23.1984 35.8044 21.7153 35.8044 20.6799C35.8044 20.3161 35.4126 19.8964 34.741 19.5046L35.5246 18.1614C37.0357 19.0289 37.3435 20.0083 37.3435 20.6799C37.3155 23.3383 32.6422 24.7375 28.2488 24.7375Z" fill="#3A6DEE"/>
<path d="M28.2488 31.0623C23.8554 31.0623 19.1821 29.6351 19.1821 27.0046H20.7492C20.7492 28.04 23.6875 29.5232 28.2768 29.5232C32.8661 29.5232 35.8044 28.04 35.8044 27.0046H37.3715C37.3155 29.6351 32.6422 31.0623 28.2488 31.0623Z" fill="#3A6DEE"/>
<path d="M28.2488 37.3582C23.8554 37.3582 19.1821 35.931 19.1821 33.3005V20.6799H20.7492V33.3005C20.7492 34.3359 23.6875 35.8191 28.2768 35.8191C32.8661 35.8191 35.8044 34.3359 35.8044 33.3005V20.6799H37.3715V33.3005C37.3155 35.931 32.6422 37.3582 28.2488 37.3582Z" fill="#3A6DEE"/>
<path d="M28.1649 20.6242C23.2118 20.6242 19.1821 16.6226 19.1821 11.7254C19.1821 6.82832 23.2118 2.82666 28.1649 2.82666C33.118 2.82666 37.1476 6.82832 37.1476 11.7254C37.1196 16.6506 33.118 20.6242 28.1649 20.6242ZM28.1649 4.39374C24.0793 4.39374 20.7492 7.69581 20.7492 11.7254C20.7492 15.7831 24.0793 19.0572 28.1649 19.0572C32.2505 19.0572 35.5805 15.7551 35.5805 11.7254C35.5805 7.69581 32.2505 4.39374 28.1649 4.39374Z" fill="#3A6DEE"/>
<path d="M28.9486 15.8671H27.3255C25.9543 15.8671 24.835 14.7758 24.835 13.4046H26.43C26.43 13.9083 26.8498 14.3001 27.3535 14.3001H28.9765C29.4802 14.3001 29.9 13.8803 29.9 13.4046C29.9 12.9009 29.4802 12.5091 28.9765 12.5091H27.3535C25.9823 12.5091 24.8629 11.4177 24.8629 10.0465C24.8629 8.67534 25.9823 7.58398 27.3535 7.58398H28.9765C30.3477 7.58398 31.4671 8.67534 31.4671 10.0465H29.9C29.9 9.54284 29.4802 9.15107 28.9765 9.15107H27.3535C26.8498 9.15107 26.43 9.57082 26.43 10.0465C26.43 10.5502 26.8498 10.942 27.3535 10.942H28.9765C30.3477 10.942 31.4671 12.0334 31.4671 13.4046C31.4391 14.7758 30.3197 15.8671 28.9486 15.8671Z" fill="#081B2D"/>
<path d="M28.9489 6.35229H27.3818V9.15066H28.9489V6.35229Z" fill="#081B2D"/>
<path d="M28.9489 14.3279H27.3818V17.1262H28.9489V14.3279Z" fill="#081B2D"/>
<path d="M8.99628 11.3618H7.4292V20.6804H8.99628V11.3618Z" fill="#081B2D"/>
<path d="M9.58391 13.8804L8.21271 12.4813L6.84151 13.8804L5.72217 12.7891L7.65304 10.8302C7.93287 10.5224 8.46456 10.5224 8.77238 10.8302L10.7033 12.7891L9.58391 13.8804Z" fill="#081B2D"/>
<path d="M15.9079 11.3618H14.3408V20.6804H15.9079V11.3618Z" fill="#081B2D"/>
<path d="M16.4955 13.8807L15.1243 12.4815L13.7531 13.8807L12.6338 12.7893L14.5647 10.8305C14.8445 10.5227 15.3762 10.5227 15.684 10.8305L17.6149 12.7893L16.4955 13.8807Z" fill="#081B2D"/>
<path d="M37.3156 20.6799H35.7485C35.7485 20.2322 35.1328 19.5046 33.3699 18.917L33.8736 17.4338C36.0843 18.2174 37.3156 19.3647 37.3156 20.6799Z" fill="#3A6DEE"/>
<path d="M20.7214 20.6806H19.1543C19.1543 19.3654 20.3296 18.246 22.4564 17.4905L22.9881 18.9456C21.309 19.5613 20.7214 20.2609 20.7214 20.6806Z" fill="#3A6DEE"/>
</g>
</g>
</g>
<defs>
<filter id="filter0_b_434_63" x="-454" y="-746" width="1680" height="1200" filterUnits="userSpaceOnUse" color-interpolation-filters="sRGB">
<feFlood flood-opacity="0" result="BackgroundImageFix"/>
<feGaussianBlur in="BackgroundImageFix" stdDeviation="60"/>
<feComposite in2="SourceAlpha" operator="in" result="effect1_backgroundBlur_434_63"/>
<feBlend mode="normal" in="SourceGraphic" in2="effect1_backgroundBlur_434_63" result="shape"/>
</filter>
<filter id="filter1_dd_434_63" x="-172.5" y="-61" width="383" height="282" filterUnits="userSpaceOnUse" color-interpolation-filters="sRGB">
<feFlood flood-opacity="0" result="BackgroundImageFix"/>
<feColorMatrix in="SourceAlpha" type="matrix" values="0 0 0 0 0 0 0 0 0 0 0 0 0 0 0 0 0 0 127 0" result="hardAlpha"/>
<feOffset dx="4" dy="-4"/>
<feGaussianBlur stdDeviation="10"/>
<feComposite in2="hardAlpha" operator="out"/>
<feColorMatrix type="matrix" values="0 0 0 0 0.0392157 0 0 0 0 0.0392157 0 0 0 0 0.0392157 0 0 0 0.04 0"/>
<feBlend mode="normal" in2="BackgroundImageFix" result="effect1_dropShadow_434_63"/>
<feColorMatrix in="SourceAlpha" type="matrix" values="0 0 0 0 0 0 0 0 0 0 0 0 0 0 0 0 0 0 127 0" result="hardAlpha"/>
<feOffset dx="-4" dy="4"/>
<feGaussianBlur stdDeviation="10"/>
<feComposite in2="hardAlpha" operator="out"/>
<feColorMatrix type="matrix" values="0 0 0 0 0.0392157 0 0 0 0 0.0392157 0 0 0 0 0.0392157 0 0 0 0.04 0"/>
<feBlend mode="normal" in2="effect1_dropShadow_434_63" result="effect2_dropShadow_434_63"/>
<feBlend mode="normal" in="SourceGraphic" in2="effect2_dropShadow_434_63" result="shape"/>
</filter>
<clipPath id="clip0_434_63">
<rect width="1440" height="960" fill="white" transform="translate(-334 -626)"/>
</clipPath>
<clipPath id="clip1_434_63">
<rect width="36.6305" height="36.7145" fill="white" transform="translate(0.684814 0.642822)"/>
</clipPath>
</defs>
</svg>
