<svg width="44" height="38" viewBox="0 0 44 38" fill="none" xmlns="http://www.w3.org/2000/svg">
<g clip-path="url(#clip0_2670_38650)">
<path opacity="0.2" d="M27.2185 37.4415C36.3833 37.4415 43.8128 30.012 43.8128 20.8472C43.8128 11.6824 36.3833 4.25293 27.2185 4.25293C18.0538 4.25293 10.6243 11.6824 10.6243 20.8472C10.6243 30.012 18.0538 37.4415 27.2185 37.4415Z" fill="#3A6DEE" fill-opacity="0.3"/>
<path d="M16.4431 21.9793C16.2625 21.9793 16.0819 21.9191 15.9314 21.7987L12.7713 19.8726L9.55101 21.8589C9.25005 22.0395 8.88889 22.0094 8.61802 21.8288C8.31706 21.6182 8.19667 21.2269 8.31706 20.8657L9.09956 17.1338L6.3006 14.7863C6.05983 14.5756 5.93944 14.2144 6.02973 13.8834C6.12002 13.5222 6.48118 13.2815 6.84233 13.2815L10.3034 12.8601L11.9888 9.42912C12.2597 8.85729 13.2529 8.85729 13.5538 9.42912L15.2392 12.8601L18.8207 13.3116C19.1518 13.3416 19.4226 13.5824 19.543 13.9135C19.6634 14.2746 19.5129 14.6659 19.2119 14.8766L16.4732 17.1639L17.2858 20.956C17.346 21.2871 17.2256 21.6182 16.9547 21.8288C16.7741 21.9191 16.5936 21.9793 16.4431 21.9793ZM8.7986 14.7261L10.5442 16.1707C10.785 16.3814 10.9053 16.6823 10.8151 16.9833L10.3034 19.391L12.3199 18.127C12.5907 17.9464 12.9218 17.9464 13.1927 18.127L15.2091 19.3609L14.6674 16.9532C14.6072 16.6522 14.6975 16.3212 14.9383 16.1406L16.6839 14.696L14.547 14.4251C14.2761 14.395 14.0053 14.2144 13.8849 13.9737L12.7412 11.5961L11.5976 13.9737C11.4772 14.2144 11.2364 14.395 10.9354 14.4251L8.7986 14.7261Z" fill="#081B2D"/>
<path d="M0.999756 7.20024C0.999756 5.43293 2.43244 4.00024 4.19976 4.00024H29.7998C31.5671 4.00024 32.9998 5.43293 32.9998 7.20024V10.4002C30.3488 10.4002 28.1998 12.5493 28.1998 15.2002C28.1998 17.8512 30.3488 20.0002 32.9998 20.0002V23.2002C32.9998 24.9676 31.5671 26.4002 29.7998 26.4002H4.19976C2.43245 26.4002 0.999756 24.9676 0.999756 23.2002V7.20024Z" stroke="#3A6DEE" stroke-width="1.67"/>
</g>
<defs>
<clipPath id="clip0_2670_38650">
<rect width="43.6264" height="36.8824" fill="white" transform="translate(0.186768 0.558838)"/>
</clipPath>
</defs>
</svg>
